<svg width="289" height="49" viewBox="0 0 289 49" fill="none" xmlns="http://www.w3.org/2000/svg">
<g clip-path="url(#clip0_103_2)">
<path d="M284.5 1H4.5C2.567 1 1 2.567 1 4.5V44.5C1 46.433 2.567 48 4.5 48H284.5C286.433 48 288 46.433 288 44.5V4.5C288 2.567 286.433 1 284.5 1Z" fill="#1A1B1E"/>
<path d="M284.5 1H4.5C2.567 1 1 2.567 1 4.5V44.5C1 46.433 2.567 48 4.5 48H284.5C286.433 48 288 46.433 288 44.5V4.5C288 2.567 286.433 1 284.5 1Z" fill="url(#paint0_linear_103_2)" fill-opacity="0.5"/>
<path d="M28.7 29.5V18.5H31.7C34.3 18.5 35.6 19.5 35.6 21.4C35.6 22.3 35.3 23.1 34.2 23.6V24C35.5 24.4 35.9 25.3 35.9 26.5C35.9 28.5 34.6 29.5 32.1 29.5H28.7ZM30 28.3H32.2C33.8 28.3 34.5 27.7 34.5 26.3C34.5 25 33.8 24.5 32.2 24.5H30V28.3ZM30 23.3H31.9C33.5 23.3 34.2 22.8 34.2 21.5C34.2 20.2 33.5 19.7 31.9 19.7H29.9V23.3H30ZM41.7 29.8C39.3 29.8 38.1 28.3 38.1 25.4V18.4H39.5V25.2C39.5 27.5 40.1 28.5 41.7 28.5C43.3 28.5 44 27.5 44 25.2V18.5H45.3V25.4C45.3 28.4 44.1 29.8 41.7 29.8ZM47.7 29.5V28.3H50.7V19.7H47.7V18.5H54.9V19.7H52V28.3H55V29.5H47.7ZM58 29.5V18.5H59.5V28.3H64.5V29.5H57.9H58ZM69.8 29.5V19.7H66.6V18.5H74.4V19.7H71.2V29.5H69.8ZM86.1 29.5L85.1 18.5H86.3L87.3 28.3H87.6L88.6 21.8H90.8L91.8 28.3H92.2L93.1 18.5H94.4L93.3 29.5H90.9L89.9 23H89.5L88.5 29.5H86.1ZM95.7 29.5V28.3H98.7V19.7H95.7V18.5H102.9V19.7H99.9V28.3H102.9V29.5H95.7ZM108.2 29.5V19.7H105V18.5H112.8V19.7H109.6V29.5H108.2ZM120.7 29.5V24.5H116.2V29.5H114.9V18.5H116.2V23.2H120.7V18.5H122.1V29.5H120.7Z" fill="white"/>
<g clip-path="url(#clip1_103_2)">
<path opacity="0.785" fill-rule="evenodd" clip-rule="evenodd" d="M170.1 8.80304C171.4 8.80304 172.699 8.80304 173.998 8.80304C176.865 12.0957 175.349 13.4088 169.451 12.7424C167.638 11.2878 167.854 9.97471 170.1 8.80304Z" fill="#FEFFFE"/>
<path opacity="0.792" fill-rule="evenodd" clip-rule="evenodd" d="M199.329 8.80304C200.629 8.80304 201.928 8.80304 203.227 8.80304C204.944 9.59722 205.485 10.6477 204.85 11.9546C202.95 13.3649 200.785 13.4962 198.355 12.3485C197.75 11.0394 198.075 9.85758 199.329 8.80304Z" fill="#FEFFFE"/>
<path opacity="0.799" fill-rule="evenodd" clip-rule="evenodd" d="M226.61 19.8334C227.154 19.6988 227.371 19.4361 227.259 19.0455C227.804 18.9109 228.021 18.6482 227.909 18.2576C230.449 18.351 232.83 18.0228 235.054 17.2728C236.136 16.0909 237.219 14.9091 238.301 13.7273C239.583 13.5321 240.882 13.4665 242.199 13.5303C240.748 19.4384 235.552 21.5394 226.61 19.8334Z" fill="#FEFFFE"/>
<path opacity="0.821" fill-rule="evenodd" clip-rule="evenodd" d="M245.446 13.5303C246.55 13.4672 247.633 13.5328 248.694 13.7272C249.816 14.5045 251.007 15.2267 252.266 15.8939C252.587 15.2502 252.695 14.5936 252.591 13.9242C253.89 13.9242 255.189 13.9242 256.488 13.9242C256.488 16.9444 256.488 19.9646 256.488 22.9848C255.189 22.9848 253.89 22.9848 252.591 22.9848C252.761 22.4027 252.545 21.8774 251.942 21.4091C250.034 22.3201 247.869 22.8453 245.446 22.9848C245.341 22.1862 245.45 21.3983 245.771 20.6212C248.073 20.1531 250.129 19.4309 251.942 18.4545C248.71 17.5453 246.329 16.1009 244.797 14.1212C245.158 13.9705 245.374 13.7735 245.446 13.5303Z" fill="#FEFFFE"/>
<path opacity="0.81" fill-rule="evenodd" clip-rule="evenodd" d="M261.035 13.5303C265.263 13.9652 269.485 14.3591 273.701 14.7121C273.325 19.5378 269.103 22.2298 261.035 22.7878C261.332 22.9509 261.549 23.1479 261.685 23.3788C265.558 23.7711 269.455 23.9024 273.376 23.7727C273.376 24.4293 273.376 25.0858 273.376 25.7424C269.479 25.7424 265.582 25.7424 261.685 25.7424C261.685 27.7121 261.685 29.6818 261.685 31.6515C260.169 31.6515 258.653 31.6515 257.138 31.6515C257.246 30.0703 257.137 28.4945 256.813 26.9242C254.635 29.9163 250.846 31.492 245.446 31.6515C245.28 30.7484 245.496 29.8948 246.096 29.0909C248.669 28.968 250.618 28.2457 251.942 26.9242C253.635 26.6018 255.367 26.4048 257.138 26.3333C253.246 26.1365 249.349 26.0709 245.446 26.1363C245.446 25.3485 245.446 24.5606 245.446 23.7727C249.343 23.7727 253.241 23.7727 257.138 23.7727C257.138 22.7222 257.138 21.6717 257.138 20.6212C258.97 20.7207 260.701 20.5237 262.334 20.0303C261.576 19.5707 260.819 19.1111 260.061 18.6515C259.614 18.3238 259.722 18.0612 260.386 17.8636C261.251 17.601 262.118 17.3384 262.984 17.0757C264.272 17.6595 265.462 18.3161 266.556 19.0454C267.608 18.3594 268.583 17.6372 269.479 16.8788C266.881 16.6161 264.283 16.6161 261.685 16.8788C260.288 17.4348 258.772 17.763 257.138 17.8636C256.944 17.0348 257.16 16.2469 257.787 15.5C259.317 15.0974 260.4 14.4409 261.035 13.5303Z" fill="#FEFFFE"/>
<path opacity="0.823" fill-rule="evenodd" clip-rule="evenodd" d="M227.909 18.2576C227.365 18.3922 227.148 18.6548 227.259 19.0455C226.715 19.1801 226.498 19.4427 226.61 19.8334C224.583 22.2921 222.526 24.7871 220.439 27.3182C220.121 27.8276 220.013 28.3529 220.114 28.894C227.259 28.894 234.404 28.894 241.549 28.894C241.549 29.8131 241.549 30.7324 241.549 31.6515C233.751 31.7171 225.957 31.6515 218.166 31.4546C215.419 30.9476 214.445 29.8315 215.243 28.1061C218.141 24.1992 220.847 20.2598 223.362 16.2879C220.331 16.2879 217.3 16.2879 214.269 16.2879C214.269 15.5 214.269 14.7121 214.269 13.9243C219.699 13.7938 225.111 13.9251 230.507 14.3182C229.273 15.551 228.407 16.8641 227.909 18.2576Z" fill="#FEFFFE"/>
<path opacity="0.858" fill-rule="evenodd" clip-rule="evenodd" d="M146.068 34.803C144.119 34.803 142.171 34.803 140.222 34.803C142.129 31.7321 144.294 28.7119 146.717 25.7424C143.062 25.3503 139.381 25.219 135.675 25.3485C135.675 24.9545 135.675 24.5606 135.675 24.1667C136.605 23.6623 137.038 23.0057 136.974 22.197C141.094 22.2624 145.207 22.1968 149.315 22C151.239 19.6003 153.08 17.171 154.836 14.7121C156.822 14.3377 158.879 14.2063 161.007 14.3182C156.386 21.2367 151.407 28.0649 146.068 34.803Z" fill="#FEFFFE"/>
<path opacity="0.844" fill-rule="evenodd" clip-rule="evenodd" d="M165.554 14.3182C174.864 14.117 178.653 16.7433 176.921 22.197C175.676 23.6092 173.836 24.594 171.4 25.1515C165.974 25.4791 160.561 25.4135 155.161 24.9545C155.625 24.0441 156.274 23.1906 157.11 22.3939C161.44 22.2626 165.77 22.1313 170.1 22C173.317 20.629 173.317 19.1846 170.1 17.6667C167.946 17.4704 165.781 17.4047 163.605 17.4697C163.891 16.3352 164.541 15.2847 165.554 14.3182Z" fill="#FEFFFE"/>
<path opacity="0.839" fill-rule="evenodd" clip-rule="evenodd" d="M175.946 34.803C173.781 34.803 171.616 34.803 169.451 34.803C174.3 28.0846 179.28 21.3876 184.39 14.7121C186.653 14.1585 188.818 14.2242 190.886 14.9091C185.637 21.4725 180.657 28.1039 175.946 34.803Z" fill="#FEFFFE"/>
<path opacity="0.853" fill-rule="evenodd" clip-rule="evenodd" d="M194.783 14.3182C200.182 13.8931 204.187 15.0749 206.799 17.8636C208.188 21.2328 206.348 23.6621 201.278 25.1515C195.87 25.3484 190.457 25.414 185.04 25.3485C185.206 24.3884 185.639 23.4691 186.339 22.5909C190.87 22.2635 195.417 22.0665 199.979 22C202.312 20.8297 202.528 19.5166 200.629 18.0606C198.338 17.534 195.957 17.337 193.484 17.4697C193.538 16.3559 193.971 15.3054 194.783 14.3182Z" fill="#FEFFFE"/>
<path opacity="0.797" fill-rule="evenodd" clip-rule="evenodd" d="M225.96 21.4091C227.491 21.3447 229.007 21.4104 230.507 21.606C233.11 23.9714 236.791 25.0875 241.549 24.9545C241.549 25.8737 241.549 26.7929 241.549 27.7121C233.887 27.7583 228.691 25.6574 225.96 21.4091Z" fill="#FEFFFE"/>
<path opacity="0.806" fill-rule="evenodd" clip-rule="evenodd" d="M262.334 26.5303C263.865 26.466 265.38 26.5316 266.881 26.7273C268.049 28.1993 269.997 28.9872 272.727 29.0909C273.326 29.8948 273.542 30.7484 273.376 31.6515C267.584 31.544 263.903 29.8369 262.334 26.5303Z" fill="#FEFFFE"/>
</g>
<path d="M284.5 1H4.5C2.567 1 1 2.567 1 4.5V44.5C1 46.433 2.567 48 4.5 48H284.5C286.433 48 288 46.433 288 44.5V4.5C288 2.567 286.433 1 284.5 1Z" stroke="url(#paint1_linear_103_2)"/>
</g>
<defs>
<linearGradient id="paint0_linear_103_2" x1="0.5" y1="48.5" x2="213.9" y2="-104" gradientUnits="userSpaceOnUse">
<stop stop-color="#3245FF"/>
<stop offset="1" stop-color="#BC52EE"/>
</linearGradient>
<linearGradient id="paint1_linear_103_2" x1="0.5" y1="48.5" x2="213.9" y2="-104" gradientUnits="userSpaceOnUse">
<stop stop-color="#3245FF"/>
<stop offset="1" stop-color="#BC52EE"/>
</linearGradient>
<clipPath id="clip0_103_2">
<rect width="288" height="48" fill="white" transform="translate(0.5 0.5)"/>
</clipPath>
<clipPath id="clip1_103_2">
<rect width="139" height="26" fill="white" transform="translate(136 9)"/>
</clipPath>
</defs>
</svg>
