<svg width="241" height="41" viewBox="0 0 241 41" fill="none" xmlns="http://www.w3.org/2000/svg">
<g clip-path="url(#clip0_103_12)">
<path d="M236.5 1H4.5C2.567 1 1 2.567 1 4.5V36.5C1 38.433 2.567 40 4.5 40H236.5C238.433 40 240 38.433 240 36.5V4.5C240 2.567 238.433 1 236.5 1Z" fill="#1A1B1E"/>
<path d="M236.5 1H4.5C2.567 1 1 2.567 1 4.5V36.5C1 38.433 2.567 40 4.5 40H236.5C238.433 40 240 38.433 240 36.5V4.5C240 2.567 238.433 1 236.5 1Z" fill="url(#paint0_linear_103_12)" fill-opacity="0.5"/>
<path d="M26.8 25.5V15.8H29.5C31.7 15.8 32.8 16.7 32.8 18.4C32.8 19.2 32.6 19.9 31.6 20.4V20.7C32.8 21 33.1 21.9 33.1 22.8C33.1 24.6 32.1 25.5 29.8 25.5H26.8ZM28 24.5H29.9C31.3 24.5 31.9 23.9 31.9 22.8C31.9 21.6 31.3 21.1 29.9 21.1H27.9V24.4L28 24.5ZM28 20.1H29.5C30.9 20.1 31.5 19.6 31.5 18.5C31.5 17.4 30.9 16.9 29.5 16.9H27.9V20.1H28ZM38.2 25.7C36.2 25.7 35.1 24.5 35.1 21.9V15.9H36.2V21.7C36.2 23.7 36.8 24.6 38.2 24.6C39.6 24.6 40.2 23.7 40.2 21.7V15.8H41.4V21.9C41.4 24.5 40.4 25.7 38.2 25.7ZM43.5 25.5V24.5H46V16.9H43.5V15.9H49.8V16.9H47.2V24.4H49.8V25.5H43.5ZM52.5 25.5V15.8H53.7V24.5H58.2V25.5H52.5ZM62.8 25.5V16.9H60V15.9H66.8V16.9H64V25.5H62.8ZM77.1 25.5L76.1 15.8H77.3L78 24.4H78.4L79.2 18.8H81.2L82 24.4H82.4L83.2 15.8H84.2L83.3 25.5H81.2L80.4 19.8H80L79.2 25.5H77.1ZM85.4 25.5V24.5H88V16.9H85.4V15.9H91.7V16.9H89.2V24.4H91.7V25.5H85.5H85.4ZM96.4 25.5V16.9H93.6V15.9H100.4V16.9H97.6V25.5H96.4ZM107.4 25.5V21.1H103.4V25.5H102.2V15.8H103.4V20H107.4V15.8H108.5V25.5H107.5H107.4Z" fill="white"/>
<g clip-path="url(#clip1_103_12)">
<path opacity="0.785" fill-rule="evenodd" clip-rule="evenodd" d="M147.023 6.82574C147.977 6.82574 148.93 6.82574 149.883 6.82574C151.987 9.73846 150.875 10.9001 146.547 10.3106C145.216 9.02384 145.375 7.86223 147.023 6.82574Z" fill="#FEFFFE"/>
<path opacity="0.792" fill-rule="evenodd" clip-rule="evenodd" d="M168.472 6.82574C169.425 6.82574 170.379 6.82574 171.332 6.82574C172.592 7.52829 172.989 8.45758 172.523 9.61362C171.129 10.8612 169.54 10.9773 167.757 9.96211C167.313 8.80406 167.551 7.75861 168.472 6.82574Z" fill="#FEFFFE"/>
<path opacity="0.799" fill-rule="evenodd" clip-rule="evenodd" d="M188.491 16.5833C188.89 16.4643 189.049 16.2319 188.967 15.8864C189.367 15.7673 189.526 15.535 189.444 15.1894C191.308 15.2721 193.055 14.9817 194.687 14.3182C195.481 13.2727 196.276 12.2273 197.07 11.1818C198.01 11.0092 198.964 10.9511 199.93 11.0076C198.866 16.234 195.052 18.0925 188.491 16.5833Z" fill="#FEFFFE"/>
<path opacity="0.821" fill-rule="evenodd" clip-rule="evenodd" d="M202.313 11.0076C203.123 10.9518 203.917 11.0098 204.696 11.1818C205.52 11.8694 206.394 12.5083 207.318 13.0985C207.553 12.529 207.632 11.9482 207.556 11.3561C208.509 11.3561 209.463 11.3561 210.416 11.3561C210.416 14.0278 210.416 16.6995 210.416 19.3712C209.463 19.3712 208.509 19.3712 207.556 19.3712C207.681 18.8562 207.522 18.3916 207.079 17.9773C205.68 18.7832 204.091 19.2478 202.313 19.3712C202.236 18.6647 202.315 17.9678 202.551 17.2803C204.241 16.8662 205.75 16.2273 207.079 15.3636C204.708 14.5594 202.961 13.2816 201.836 11.5303C202.101 11.397 202.26 11.2227 202.313 11.0076Z" fill="#FEFFFE"/>
<path opacity="0.81" fill-rule="evenodd" clip-rule="evenodd" d="M213.752 11.0076C216.855 11.3923 219.953 11.7408 223.047 12.053C222.771 16.322 219.673 18.7033 213.752 19.197C213.97 19.3412 214.129 19.5155 214.229 19.7197C217.071 20.0667 219.931 20.1829 222.808 20.0682C222.808 20.649 222.808 21.2298 222.808 21.8106C219.949 21.8106 217.089 21.8106 214.229 21.8106C214.229 23.553 214.229 25.2954 214.229 27.0379C213.117 27.0379 212.005 27.0379 210.893 27.0379C210.972 25.6391 210.892 24.2452 210.654 22.8561C209.056 25.5029 206.275 26.8968 202.313 27.0379C202.191 26.239 202.35 25.4839 202.79 24.7727C204.678 24.664 206.108 24.0251 207.079 22.8561C208.322 22.5709 209.593 22.3966 210.893 22.3333C208.037 22.1593 205.177 22.1012 202.313 22.1591C202.313 21.4621 202.313 20.7651 202.313 20.0682C205.173 20.0682 208.033 20.0682 210.893 20.0682C210.893 19.1389 210.893 18.2096 210.893 17.2803C212.237 17.3683 213.507 17.194 214.706 16.7576C214.149 16.351 213.594 15.9444 213.037 15.5379C212.709 15.248 212.789 15.0157 213.276 14.8409C213.911 14.6086 214.547 14.3763 215.182 14.1439C216.127 14.6604 217.001 15.2412 217.804 15.8864C218.576 15.2795 219.291 14.6406 219.949 13.9697C218.042 13.7374 216.136 13.7374 214.229 13.9697C213.204 14.4615 212.092 14.7519 210.893 14.8409C210.75 14.1077 210.909 13.4107 211.369 12.75C212.492 12.3939 213.286 11.8131 213.752 11.0076Z" fill="#FEFFFE"/>
<path opacity="0.823" fill-rule="evenodd" clip-rule="evenodd" d="M189.444 15.1894C189.045 15.3085 188.885 15.5408 188.967 15.8864C188.568 16.0055 188.409 16.2378 188.491 16.5833C187.003 18.7584 185.494 20.9655 183.963 23.2046C183.729 23.6552 183.649 24.1199 183.724 24.5985C188.967 24.5985 194.21 24.5985 199.453 24.5985C199.453 25.4116 199.453 26.2248 199.453 27.0379C193.731 27.0959 188.012 27.0379 182.294 26.8636C180.279 26.4152 179.564 25.4278 180.15 23.9015C182.276 20.4455 184.262 16.9606 186.107 13.447C183.883 13.447 181.659 13.447 179.435 13.447C179.435 12.75 179.435 12.053 179.435 11.3561C183.419 11.2407 187.391 11.3568 191.35 11.7046C190.445 12.7951 189.81 13.9567 189.444 15.1894Z" fill="#FEFFFE"/>
<path opacity="0.858" fill-rule="evenodd" clip-rule="evenodd" d="M129.388 29.8257C127.958 29.8257 126.528 29.8257 125.098 29.8257C126.497 27.1091 128.086 24.4374 129.864 21.8106C127.182 21.4637 124.481 21.3475 121.762 21.4621C121.762 21.1136 121.762 20.7651 121.762 20.4167C122.444 19.9705 122.762 19.3896 122.715 18.6742C125.738 18.7322 128.756 18.6741 131.771 18.5C133.183 16.3772 134.533 14.2282 135.822 12.053C137.279 11.7218 138.789 11.6056 140.35 11.7045C136.96 17.8247 133.306 23.8651 129.388 29.8257Z" fill="#FEFFFE"/>
<path opacity="0.844" fill-rule="evenodd" clip-rule="evenodd" d="M143.687 11.7046C150.519 11.5266 153.299 13.8499 152.028 18.6743C151.115 19.9235 149.764 20.7948 147.977 21.2879C143.995 21.5777 140.023 21.5197 136.061 21.1137C136.401 20.3083 136.877 19.5532 137.491 18.8485C140.668 18.7324 143.846 18.6162 147.023 18.5C149.384 17.2873 149.384 16.0095 147.023 14.6667C145.442 14.493 143.854 14.4349 142.257 14.4924C142.467 13.4889 142.943 12.5596 143.687 11.7046Z" fill="#FEFFFE"/>
<path opacity="0.839" fill-rule="evenodd" clip-rule="evenodd" d="M151.313 29.8258C149.724 29.8258 148.135 29.8258 146.547 29.8258C150.105 23.8825 153.76 17.9583 157.509 12.053C159.17 11.5633 160.759 11.6214 162.276 12.2273C158.424 18.0334 154.77 23.8996 151.313 29.8258Z" fill="#FEFFFE"/>
<path opacity="0.853" fill-rule="evenodd" clip-rule="evenodd" d="M165.136 11.7046C169.098 11.3285 172.037 12.374 173.953 14.8409C174.972 17.8213 173.622 19.9703 169.902 21.2879C165.933 21.462 161.961 21.5201 157.986 21.4621C158.108 20.6128 158.426 19.7996 158.939 19.0227C162.264 18.7331 165.601 18.5589 168.949 18.5C170.661 17.4648 170.819 16.3032 169.425 15.0152C167.745 14.5493 165.997 14.3751 164.182 14.4924C164.222 13.5071 164.54 12.5779 165.136 11.7046Z" fill="#FEFFFE"/>
<path opacity="0.797" fill-rule="evenodd" clip-rule="evenodd" d="M188.014 17.9773C189.137 17.9204 190.249 17.9785 191.35 18.1515C193.261 20.2439 195.962 21.2313 199.453 21.1137C199.453 21.9268 199.453 22.7399 199.453 23.5531C193.831 23.594 190.018 21.7354 188.014 17.9773Z" fill="#FEFFFE"/>
<path opacity="0.806" fill-rule="evenodd" clip-rule="evenodd" d="M214.706 22.5076C215.829 22.4507 216.941 22.5088 218.042 22.6818C218.899 23.984 220.329 24.681 222.332 24.7727C222.772 25.4839 222.93 26.239 222.808 27.0379C218.558 26.9428 215.857 25.4327 214.706 22.5076Z" fill="#FEFFFE"/>
</g>
<path d="M236.5 1H4.5C2.567 1 1 2.567 1 4.5V36.5C1 38.433 2.567 40 4.5 40H236.5C238.433 40 240 38.433 240 36.5V4.5C240 2.567 238.433 1 236.5 1Z" stroke="url(#paint1_linear_103_12)"/>
</g>
<defs>
<linearGradient id="paint0_linear_103_12" x1="0.5" y1="40.5" x2="178.3" y2="-86.5" gradientUnits="userSpaceOnUse">
<stop stop-color="#3245FF"/>
<stop offset="1" stop-color="#BC52EE"/>
</linearGradient>
<linearGradient id="paint1_linear_103_12" x1="0.5" y1="40.5" x2="178.3" y2="-86.5" gradientUnits="userSpaceOnUse">
<stop stop-color="#3245FF"/>
<stop offset="1" stop-color="#BC52EE"/>
</linearGradient>
<clipPath id="clip0_103_12">
<rect width="240" height="40" fill="white" transform="translate(0.5 0.5)"/>
</clipPath>
<clipPath id="clip1_103_12">
<rect width="102" height="23" fill="white" transform="translate(122 7)"/>
</clipPath>
</defs>
</svg>
