<svg width="396" height="214" viewBox="0 0 396 214" fill="none" xmlns="http://www.w3.org/2000/svg">
<g clip-path="url(#clip0_103_17)">
<path d="M257.76 1.17999H5.96999C3.32455 1.17999 1.17999 3.32455 1.17999 5.96999V38.81C1.17999 41.4554 3.32455 43.6 5.96999 43.6H257.76C260.405 43.6 262.55 41.4554 262.55 38.81V5.96999C262.55 3.32455 260.405 1.17999 257.76 1.17999Z" fill="#1A1B1E"/>
<path d="M257.76 1.17999H5.96999C3.32455 1.17999 1.17999 3.32455 1.17999 5.96999V38.81C1.17999 41.4554 3.32455 43.6 5.96999 43.6H257.76C260.405 43.6 262.55 41.4554 262.55 38.81V5.96999C262.55 3.32455 260.405 1.17999 257.76 1.17999Z" fill="url(#paint0_linear_103_17)" fill-opacity="0.5"/>
<path d="M36.4 27.4V16.05H39.6C42.2 16.05 43.49 17.04 43.49 19.05C43.49 19.98 43.21 20.82 42.11 21.29V21.72C43.45 22.12 43.83 23.12 43.83 24.26C43.83 26.35 42.53 27.38 39.93 27.38H36.39L36.4 27.4ZM37.77 26.15H40.01C41.7 26.15 42.39 25.57 42.39 24.19C42.39 22.79 41.69 22.22 40.01 22.22H37.77V26.15ZM37.77 21.01H39.67C41.37 21.01 42.06 20.48 42.06 19.15C42.06 17.84 41.39 17.31 39.68 17.31H37.78V21.01H37.77ZM49.82 27.66C47.34 27.66 46.12 26.18 46.12 23.19V16.06H47.5V22.99C47.5 25.33 48.2 26.33 49.82 26.33C51.45 26.33 52.14 25.33 52.14 22.99V16.06H53.5V23.19C53.5 26.18 52.29 27.66 49.81 27.66H49.82ZM55.97 27.39V26.15H58.97V17.3H55.97V16.05H63.37V17.3H60.36V26.14H63.36V27.38H55.97V27.39ZM66.56 27.39V16.06H67.94V26.15H73.29V27.39H66.56ZM78.66 27.39V17.31H75.34V16.06H83.38V17.31H80.05V27.4H78.67L78.66 27.39ZM95.41 27.39L94.26 16.06H95.6L96.5 26.13L96.93 26.16L97.93 19.51H100.18L101.18 26.16L101.61 26.13L102.51 16.06H103.85L102.7 27.4H100.23L99.28 20.77H98.82L97.87 27.4H95.4L95.41 27.39ZM105.21 27.39V26.15H108.21V17.3H105.21V16.05H112.59V17.3H109.59V26.14H112.59V27.38H105.2L105.21 27.39ZM118.05 27.39V17.31H114.72V16.06H122.77V17.31H119.43V27.4H118.05V27.39ZM130.91 27.39V22.21H126.27V27.39H124.89V16.06H126.27V20.96H130.91V16.06H132.28V27.4H130.9L130.91 27.39Z" fill="white"/>
<g clip-path="url(#clip1_103_17)">
<path opacity="0.785" fill-rule="evenodd" clip-rule="evenodd" d="M173.079 12.8712C173.921 12.8712 174.762 12.8712 175.603 12.8712C177.459 15.0241 176.478 15.8827 172.659 15.447C171.485 14.4959 171.625 13.6373 173.079 12.8712Z" fill="#FEFFFE"/>
<path opacity="0.792" fill-rule="evenodd" clip-rule="evenodd" d="M192.005 12.8712C192.846 12.8712 193.687 12.8712 194.528 12.8712C195.64 13.3905 195.99 14.0774 195.579 14.9318C194.349 15.8539 192.947 15.9398 191.374 15.1894C190.982 14.3335 191.192 13.5607 192.005 12.8712Z" fill="#FEFFFE"/>
<path opacity="0.799" fill-rule="evenodd" clip-rule="evenodd" d="M209.668 20.0833C210.021 19.9953 210.161 19.8236 210.089 19.5682C210.441 19.4801 210.582 19.3084 210.509 19.053C212.154 19.1141 213.696 18.8995 215.136 18.4091C215.837 17.6363 216.537 16.8636 217.238 16.0909C218.068 15.9633 218.909 15.9203 219.762 15.9621C218.823 19.8251 215.458 21.1988 209.668 20.0833Z" fill="#FEFFFE"/>
<path opacity="0.821" fill-rule="evenodd" clip-rule="evenodd" d="M221.864 15.9621C222.579 15.9209 223.28 15.9638 223.967 16.0909C224.694 16.5991 225.465 17.0713 226.28 17.5076C226.488 17.0867 226.558 16.6574 226.491 16.2197C227.332 16.2197 228.173 16.2197 229.014 16.2197C229.014 18.1945 229.014 20.1692 229.014 22.1439C228.173 22.1439 227.332 22.1439 226.491 22.1439C226.601 21.7633 226.461 21.4198 226.07 21.1136C224.835 21.7093 223.433 22.0527 221.864 22.1439C221.796 21.6218 221.867 21.1066 222.075 20.5985C223.565 20.2924 224.897 19.8202 226.07 19.1818C223.978 18.5874 222.436 17.6429 221.444 16.3485C221.678 16.2499 221.818 16.1212 221.864 15.9621Z" fill="#FEFFFE"/>
<path opacity="0.81" fill-rule="evenodd" clip-rule="evenodd" d="M231.958 15.9621C234.696 16.2465 237.429 16.504 240.159 16.7348C239.915 19.8901 237.182 21.6502 231.958 22.0151C232.15 22.1218 232.291 22.2506 232.379 22.4015C234.886 22.658 237.41 22.7439 239.949 22.6591C239.949 23.0884 239.949 23.5176 239.949 23.9469C237.425 23.9469 234.902 23.9469 232.379 23.9469C232.379 25.2348 232.379 26.5227 232.379 27.8106C231.397 27.8106 230.416 27.8106 229.435 27.8106C229.504 26.7767 229.434 25.7464 229.224 24.7197C227.814 26.676 225.361 27.7063 221.864 27.8106C221.757 27.2201 221.897 26.662 222.285 26.1363C223.951 26.056 225.213 25.5837 226.07 24.7197C227.167 24.5089 228.288 24.3801 229.435 24.3333C226.915 24.2046 224.392 24.1617 221.864 24.2045C221.864 23.6894 221.864 23.1742 221.864 22.6591C224.388 22.6591 226.911 22.6591 229.435 22.6591C229.435 21.9722 229.435 21.2853 229.435 20.5985C230.621 20.6635 231.742 20.5347 232.799 20.2121C232.308 19.9116 231.818 19.6111 231.327 19.3106C231.038 19.0964 231.108 18.9246 231.537 18.7954C232.098 18.6237 232.659 18.452 233.22 18.2803C234.054 18.662 234.824 19.0913 235.533 19.5682C236.214 19.1196 236.845 18.6474 237.425 18.1515C235.743 17.9798 234.061 17.9798 232.379 18.1515C231.474 18.515 230.493 18.7297 229.435 18.7954C229.309 18.2535 229.449 17.7383 229.855 17.25C230.846 16.9868 231.547 16.5575 231.958 15.9621Z" fill="#FEFFFE"/>
<path opacity="0.823" fill-rule="evenodd" clip-rule="evenodd" d="M210.509 19.053C210.157 19.141 210.016 19.3128 210.089 19.5682C209.736 19.6562 209.596 19.8279 209.668 20.0833C208.356 21.691 207.024 23.3223 205.673 24.9773C205.467 25.3104 205.397 25.6538 205.463 26.0076C210.089 26.0076 214.715 26.0076 219.341 26.0076C219.341 26.6086 219.341 27.2096 219.341 27.8106C214.292 27.8535 209.246 27.8106 204.201 27.6818C202.422 27.3503 201.792 26.6206 202.308 25.4924C204.185 22.9379 205.937 20.3622 207.565 17.7651C205.603 17.7651 203.64 17.7651 201.678 17.7651C201.678 17.25 201.678 16.7348 201.678 16.2197C205.193 16.1344 208.698 16.2202 212.192 16.4773C211.393 17.2833 210.832 18.1419 210.509 19.053Z" fill="#FEFFFE"/>
<path opacity="0.858" fill-rule="evenodd" clip-rule="evenodd" d="M157.519 29.8712C156.257 29.8712 154.995 29.8712 153.734 29.8712C154.968 27.8633 156.37 25.8885 157.939 23.9469C155.572 23.6906 153.189 23.6047 150.79 23.6894C150.79 23.4318 150.79 23.1742 150.79 22.9166C151.392 22.5868 151.672 22.1575 151.631 21.6288C154.298 21.6716 156.962 21.6286 159.622 21.5C160.867 19.9309 162.059 18.3426 163.196 16.7348C164.482 16.49 165.814 16.4041 167.192 16.4773C164.2 21.0009 160.976 25.4655 157.519 29.8712Z" fill="#FEFFFE"/>
<path opacity="0.844" fill-rule="evenodd" clip-rule="evenodd" d="M170.136 16.4773C176.164 16.3458 178.617 18.063 177.495 21.6288C176.69 22.5522 175.498 23.1961 173.921 23.5606C170.407 23.7749 166.903 23.7319 163.407 23.4318C163.707 22.8366 164.127 22.2785 164.668 21.7576C167.472 21.6717 170.276 21.5859 173.079 21.5C175.162 20.6036 175.162 19.6592 173.079 18.6667C171.685 18.5383 170.283 18.4954 168.874 18.5379C169.059 17.7961 169.48 17.1093 170.136 16.4773Z" fill="#FEFFFE"/>
<path opacity="0.839" fill-rule="evenodd" clip-rule="evenodd" d="M176.864 29.8712C175.463 29.8712 174.061 29.8712 172.659 29.8712C175.799 25.4784 179.023 21.0996 182.332 16.7348C183.797 16.3729 185.199 16.4158 186.537 16.8636C183.139 21.1551 179.914 25.491 176.864 29.8712Z" fill="#FEFFFE"/>
<path opacity="0.853" fill-rule="evenodd" clip-rule="evenodd" d="M189.061 16.4773C192.557 16.1993 195.15 16.972 196.841 18.7954C197.74 20.9984 196.549 22.5868 193.266 23.5606C189.764 23.6893 186.26 23.7322 182.752 23.6894C182.86 23.0616 183.14 22.4606 183.593 21.8864C186.527 21.6723 189.471 21.5435 192.425 21.5C193.936 20.7348 194.076 19.8762 192.846 18.9242C191.363 18.5799 189.821 18.4511 188.22 18.5379C188.255 17.8096 188.535 17.1228 189.061 16.4773Z" fill="#FEFFFE"/>
<path opacity="0.797" fill-rule="evenodd" clip-rule="evenodd" d="M209.248 21.1136C210.239 21.0716 211.22 21.1145 212.192 21.2424C213.877 22.789 216.261 23.5188 219.341 23.4318C219.341 24.0328 219.341 24.6338 219.341 25.2348C214.38 25.2651 211.016 23.8914 209.248 21.1136Z" fill="#FEFFFE"/>
<path opacity="0.806" fill-rule="evenodd" clip-rule="evenodd" d="M232.799 24.4621C233.79 24.4201 234.772 24.463 235.743 24.5909C236.499 25.5534 237.761 26.0686 239.528 26.1364C239.916 26.662 240.056 27.2201 239.949 27.8106C236.198 27.7403 233.815 26.6242 232.799 24.4621Z" fill="#FEFFFE"/>
</g>
<path d="M257.76 1.17999H5.96999C3.32455 1.17999 1.17999 3.32455 1.17999 5.96999V38.81C1.17999 41.4554 3.32455 43.6 5.96999 43.6H257.76C260.405 43.6 262.55 41.4554 262.55 38.81V5.96999C262.55 3.32455 260.405 1.17999 257.76 1.17999Z" stroke="url(#paint1_linear_103_17)" stroke-width="1.37"/>
<path d="M323.44 68.97H5.96999C3.32455 68.97 1.17999 71.1145 1.17999 73.76V117.55C1.17999 120.195 3.32455 122.34 5.96999 122.34H323.44C326.085 122.34 328.23 120.195 328.23 117.55V73.76C328.23 71.1145 326.085 68.97 323.44 68.97Z" fill="#1A1B1E"/>
<path d="M323.44 68.97H5.96999C3.32455 68.97 1.17999 71.1145 1.17999 73.76V117.55C1.17999 120.195 3.32455 122.34 5.96999 122.34H323.44C326.085 122.34 328.23 120.195 328.23 117.55V73.76C328.23 71.1145 326.085 68.97 323.44 68.97Z" fill="url(#paint2_linear_103_17)" fill-opacity="0.5"/>
<path d="M36.46 103.71V90.49H40.19C43.24 90.49 44.73 91.64 44.73 93.98C44.73 95.07 44.41 96.05 43.13 96.6V97.1C44.7 97.56 45.13 98.73 45.13 100.07C45.13 102.5 43.63 103.71 40.58 103.71H36.46ZM38.06 102.25H40.67C42.65 102.25 43.45 101.58 43.45 99.97C43.45 98.35 42.63 97.67 40.67 97.67H38.07V102.25H38.06ZM38.06 96.25H40.29C42.26 96.25 43.07 95.65 43.07 94.09C43.07 92.56 42.28 91.95 40.29 91.95H38.07V96.25H38.06ZM52.12 104.02C49.22 104.02 47.82 102.29 47.82 98.81V90.49H49.42V98.58C49.42 101.3 50.22 102.47 52.12 102.47C54.02 102.47 54.82 101.3 54.82 98.57V90.5H56.43V98.82C56.43 102.3 55.01 104.02 52.13 104.02H52.12ZM59.3 103.71V102.25H62.8V91.95H59.3V90.49H67.92V91.95H64.42V102.25H67.92V103.71H59.3ZM71.65 103.71V90.49H73.25V102.25H79.5V103.71H71.65ZM85.78 103.71V91.95H81.89V90.49H91.28V91.95H87.38V103.71H85.78ZM105.31 103.71L103.96 90.49H105.54L106.59 102.24L107.09 102.27L108.25 94.51H110.88L112.05 102.27L112.55 102.24L113.6 90.49H115.15L113.81 103.71H110.94L109.83 95.97H109.29L108.18 103.71H105.3H105.31ZM116.73 103.71V102.25H120.24V91.95H116.74V90.49H125.36V91.95H121.85V102.25H125.35V103.71H116.74H116.73ZM131.73 103.71V91.95H127.83V90.49H137.23V91.95H133.33V103.71H131.73ZM146.73 103.71V97.66H141.32V103.71H139.71V90.49H141.31V96.2H146.72V90.5H148.33V103.71H146.73Z" fill="white"/>
<g clip-path="url(#clip2_103_17)">
<path opacity="0.785" fill-rule="evenodd" clip-rule="evenodd" d="M199.572 81.8333C200.928 81.8333 202.283 81.8333 203.638 81.8333C206.629 84.6194 205.048 85.7305 198.895 85.1666C197.003 83.9358 197.229 82.8247 199.572 81.8333Z" fill="#FEFFFE"/>
<path opacity="0.792" fill-rule="evenodd" clip-rule="evenodd" d="M230.063 81.8333C231.418 81.8333 232.773 81.8333 234.129 81.8333C235.92 82.5053 236.484 83.3942 235.822 84.5C233.84 85.6933 231.581 85.8044 229.047 84.8333C228.415 83.7256 228.754 82.7256 230.063 81.8333Z" fill="#FEFFFE"/>
<path opacity="0.799" fill-rule="evenodd" clip-rule="evenodd" d="M258.521 91.1667C259.089 91.0528 259.315 90.8305 259.199 90.5C259.766 90.3861 259.993 90.1639 259.876 89.8333C262.525 89.9124 265.01 89.6346 267.329 89C268.459 88 269.588 87 270.717 86C272.054 85.8348 273.409 85.7793 274.783 85.8333C273.27 90.8325 267.849 92.6102 258.521 91.1667Z" fill="#FEFFFE"/>
<path opacity="0.821" fill-rule="evenodd" clip-rule="evenodd" d="M278.171 85.8333C279.322 85.7799 280.451 85.8355 281.558 86C282.729 86.6577 283.971 87.2688 285.285 87.8333C285.62 87.2886 285.732 86.7331 285.624 86.1667C286.979 86.1667 288.334 86.1667 289.689 86.1667C289.689 88.7222 289.689 91.2778 289.689 93.8333C288.334 93.8333 286.979 93.8333 285.624 93.8333C285.801 93.3407 285.576 92.8963 284.946 92.5C282.956 93.2709 280.698 93.7153 278.171 93.8333C278.061 93.1576 278.174 92.4909 278.509 91.8333C280.911 91.4373 283.056 90.8261 284.946 90C281.575 89.2307 279.091 88.0085 277.493 86.3333C277.87 86.2058 278.095 86.0391 278.171 85.8333Z" fill="#FEFFFE"/>
<path opacity="0.81" fill-rule="evenodd" clip-rule="evenodd" d="M294.432 85.8333C298.843 86.2013 303.247 86.5346 307.645 86.8333C307.253 90.9166 302.848 93.1944 294.432 93.6666C294.742 93.8046 294.968 93.9713 295.11 94.1666C299.15 94.4986 303.216 94.6097 307.306 94.5C307.306 95.0555 307.306 95.6111 307.306 96.1666C303.241 96.1666 299.175 96.1666 295.11 96.1666C295.11 97.8333 295.11 99.5 295.11 101.167C293.529 101.167 291.948 101.167 290.367 101.167C290.479 99.8287 290.366 98.4954 290.028 97.1666C287.755 99.6984 283.803 101.032 278.171 101.167C277.997 100.402 278.223 99.6802 278.848 99C281.533 98.896 283.565 98.2848 284.946 97.1666C286.713 96.8938 288.52 96.7272 290.367 96.6666C286.308 96.5001 282.242 96.4446 278.171 96.5C278.171 95.8333 278.171 95.1666 278.171 94.5C282.236 94.5 286.301 94.5 290.367 94.5C290.367 93.6111 290.367 92.7222 290.367 91.8333C292.278 91.9175 294.084 91.7508 295.787 91.3333C294.997 90.9444 294.207 90.5555 293.416 90.1666C292.95 89.8894 293.063 89.6672 293.755 89.5C294.658 89.2777 295.562 89.0555 296.465 88.8333C297.809 89.3273 299.051 89.8829 300.192 90.5C301.289 89.9195 302.306 89.3084 303.241 88.6666C300.53 88.4444 297.82 88.4444 295.11 88.6666C293.653 89.1371 292.072 89.4149 290.367 89.5C290.164 88.7986 290.39 88.132 291.044 87.5C292.64 87.1594 293.77 86.6038 294.432 85.8333Z" fill="#FEFFFE"/>
<path opacity="0.823" fill-rule="evenodd" clip-rule="evenodd" d="M259.876 89.8334C259.308 89.9473 259.082 90.1695 259.199 90.5C258.631 90.6139 258.404 90.8362 258.521 91.1667C256.406 93.2472 254.261 95.3583 252.084 97.5C251.752 97.9311 251.639 98.3756 251.745 98.8334C259.199 98.8334 266.652 98.8334 274.105 98.8334C274.105 99.6111 274.105 100.389 274.105 101.167C265.971 101.222 257.84 101.167 249.713 101C246.847 100.571 245.831 99.6266 246.664 98.1667C249.687 94.8609 252.51 91.5276 255.133 88.1667C251.971 88.1667 248.809 88.1667 245.647 88.1667C245.647 87.5 245.647 86.8334 245.647 86.1667C251.312 86.0563 256.958 86.1674 262.586 86.5C261.299 87.5431 260.396 88.6543 259.876 89.8334Z" fill="#FEFFFE"/>
<path opacity="0.858" fill-rule="evenodd" clip-rule="evenodd" d="M174.502 103.833C172.47 103.833 170.437 103.833 168.404 103.833C170.393 101.235 172.652 98.6793 175.18 96.1667C171.367 95.8349 167.527 95.7237 163.661 95.8333C163.661 95.5 163.661 95.1667 163.661 94.8333C164.631 94.4065 165.083 93.851 165.016 93.1667C169.314 93.2221 173.605 93.1665 177.89 93C179.897 90.9695 181.817 88.9139 183.65 86.8333C185.721 86.5165 187.866 86.4054 190.086 86.5C185.266 92.3541 180.072 98.1319 174.502 103.833Z" fill="#FEFFFE"/>
<path opacity="0.844" fill-rule="evenodd" clip-rule="evenodd" d="M194.829 86.5C204.542 86.3298 208.494 88.552 206.687 93.1667C205.389 94.3616 203.469 95.195 200.928 95.6667C195.268 95.9439 189.621 95.8884 183.988 95.5C184.472 94.7296 185.149 94.0074 186.021 93.3333C190.538 93.2222 195.055 93.1111 199.572 93C202.928 91.84 202.928 90.6178 199.572 89.3333C197.325 89.1672 195.067 89.1117 192.797 89.1667C193.095 88.2067 193.773 87.3178 194.829 86.5Z" fill="#FEFFFE"/>
<path opacity="0.839" fill-rule="evenodd" clip-rule="evenodd" d="M205.671 103.833C203.412 103.833 201.153 103.833 198.895 103.833C203.954 98.1485 209.148 92.4818 214.479 86.8333C216.84 86.3649 219.098 86.4204 221.255 87C215.779 92.5536 210.584 98.1648 205.671 103.833Z" fill="#FEFFFE"/>
<path opacity="0.853" fill-rule="evenodd" clip-rule="evenodd" d="M225.32 86.5C230.953 86.1403 235.131 87.1403 237.855 89.5C239.304 92.3509 237.384 94.4064 232.096 95.6667C226.454 95.8333 220.807 95.8888 215.157 95.8334C215.33 95.021 215.782 94.2432 216.512 93.5C221.239 93.223 225.982 93.0563 230.741 93C233.174 92.0098 233.4 90.8987 231.418 89.6667C229.029 89.2211 226.545 89.0544 223.965 89.1667C224.022 88.2242 224.473 87.3354 225.32 86.5Z" fill="#FEFFFE"/>
<path opacity="0.797" fill-rule="evenodd" clip-rule="evenodd" d="M257.843 92.5C259.44 92.4456 261.021 92.5011 262.586 92.6667C265.302 94.6681 269.142 95.6125 274.105 95.5C274.105 96.2778 274.105 97.0556 274.105 97.8333C266.113 97.8725 260.692 96.0947 257.843 92.5Z" fill="#FEFFFE"/>
<path opacity="0.806" fill-rule="evenodd" clip-rule="evenodd" d="M295.787 96.8333C297.384 96.7789 298.965 96.8344 300.53 97C301.749 98.2455 303.781 98.9122 306.629 99C307.254 99.6802 307.48 100.402 307.306 101.167C301.264 101.076 297.424 99.6312 295.787 96.8333Z" fill="#FEFFFE"/>
</g>
<path d="M323.44 68.97H5.96999C3.32455 68.97 1.17999 71.1145 1.17999 73.76V117.55C1.17999 120.195 3.32455 122.34 5.96999 122.34H323.44C326.085 122.34 328.23 120.195 328.23 117.55V73.76C328.23 71.1145 326.085 68.97 323.44 68.97Z" stroke="url(#paint3_linear_103_17)" stroke-width="1.37"/>
<path d="M389.13 147.71H5.96999C3.32455 147.71 1.17999 149.855 1.17999 152.5V207.24C1.17999 209.885 3.32455 212.03 5.96999 212.03H389.13C391.775 212.03 393.92 209.885 393.92 207.24V152.5C393.92 149.855 391.775 147.71 389.13 147.71Z" fill="#1A1B1E"/>
<path d="M389.13 147.71H5.96999C3.32455 147.71 1.17999 149.855 1.17999 152.5V207.24C1.17999 209.885 3.32455 212.03 5.96999 212.03H389.13C391.775 212.03 393.92 209.885 393.92 207.24V152.5C393.92 149.855 391.775 147.71 389.13 147.71Z" fill="url(#paint4_linear_103_17)" fill-opacity="0.5"/>
<path d="M38.7 186.87V171.77H42.98C46.46 171.77 48.16 173.07 48.16 175.75C48.16 176.99 47.79 178.11 46.33 178.75V179.31C48.13 179.84 48.63 181.18 48.63 182.71C48.63 185.49 46.89 186.87 43.41 186.87H38.71H38.7ZM40.54 185.21H43.52C45.78 185.21 46.7 184.44 46.7 182.6C46.7 180.74 45.76 179.97 43.52 179.97H40.54V185.21ZM40.54 178.35H43.08C45.34 178.35 46.26 177.65 46.26 175.88C46.26 174.13 45.36 173.43 43.08 173.43H40.54V178.35ZM56.61 187.22C53.31 187.22 51.68 185.25 51.68 181.26V171.76H53.52V181C53.52 184.11 54.44 185.44 56.61 185.44C58.77 185.44 59.69 184.11 59.69 181V171.76H61.53V181.26C61.53 185.25 59.91 187.22 56.61 187.22ZM64.81 186.87V185.21H68.81V173.43H64.81V171.76H74.66V173.43H70.66V185.21H74.66V186.87H64.81ZM78.92 186.87V171.77H80.76V185.21H87.9V186.87H78.92ZM95.07 186.87V173.43H90.63V171.76H101.36V173.43H96.9V186.87H95.06H95.07ZM117.39 186.87L115.86 171.77H117.66L118.86 185.18L119.42 185.23L120.76 176.36H123.76L125.09 185.23L125.66 185.18L126.86 171.76H128.64L127.11 186.86H123.83L122.56 178.02H121.94L120.67 186.87H117.39ZM130.45 186.87V185.21H134.45V173.43H130.45V171.76H140.3V173.43H136.3V185.21H140.3V186.87H130.45ZM147.59 186.87V173.43H143.14V171.76H153.87V173.43H149.43V186.87H147.59ZM164.72 186.87V179.95H158.55V186.87H156.71V171.77H158.55V178.29H164.72V171.76H166.56V186.86H164.72V186.87Z" fill="white"/>
<g clip-path="url(#clip3_103_17)">
<path opacity="0.785" fill-rule="evenodd" clip-rule="evenodd" d="M230.348 157.705C232.152 157.705 233.956 157.705 235.759 157.705C239.74 162.643 237.636 164.613 229.446 163.614C226.929 161.432 227.229 159.462 230.348 157.705Z" fill="#FEFFFE"/>
<path opacity="0.792" fill-rule="evenodd" clip-rule="evenodd" d="M270.932 157.705C272.736 157.705 274.54 157.705 276.343 157.705C278.728 158.896 279.479 160.472 278.598 162.432C275.959 164.547 272.953 164.744 269.579 163.023C268.739 161.059 269.19 159.286 270.932 157.705Z" fill="#FEFFFE"/>
<path opacity="0.799" fill-rule="evenodd" clip-rule="evenodd" d="M308.811 174.25C309.567 174.048 309.868 173.654 309.713 173.068C310.468 172.866 310.77 172.472 310.614 171.886C314.141 172.027 317.448 171.534 320.535 170.409C322.038 168.636 323.541 166.864 325.044 165.091C326.824 164.798 328.628 164.7 330.456 164.795C328.442 173.658 321.227 176.809 308.811 174.25Z" fill="#FEFFFE"/>
<path opacity="0.821" fill-rule="evenodd" clip-rule="evenodd" d="M334.965 164.795C336.497 164.701 338.001 164.799 339.474 165.091C341.033 166.257 342.686 167.34 344.435 168.341C344.88 167.375 345.03 166.39 344.886 165.386C346.689 165.386 348.493 165.386 350.297 165.386C350.297 169.917 350.297 174.447 350.297 178.977C348.493 178.977 346.689 178.977 344.886 178.977C345.122 178.104 344.821 177.316 343.984 176.614C341.335 177.98 338.329 178.768 334.965 178.977C334.819 177.779 334.969 176.598 335.416 175.432C338.612 174.73 341.467 173.646 343.984 172.182C339.497 170.818 336.191 168.651 334.063 165.682C334.565 165.456 334.865 165.16 334.965 164.795Z" fill="#FEFFFE"/>
<path opacity="0.81" fill-rule="evenodd" clip-rule="evenodd" d="M356.61 164.795C362.481 165.448 368.343 166.039 374.196 166.568C373.674 173.807 367.812 177.845 356.61 178.682C357.022 178.926 357.323 179.222 357.512 179.568C362.89 180.157 368.301 180.354 373.745 180.159C373.745 181.144 373.745 182.129 373.745 183.114C368.334 183.114 362.923 183.114 357.512 183.114C357.512 186.068 357.512 189.023 357.512 191.977C355.408 191.977 353.303 191.977 351.199 191.977C351.348 189.605 351.198 187.242 350.748 184.886C347.723 189.374 342.462 191.738 334.965 191.977C334.734 190.623 335.034 189.342 335.867 188.136C339.44 187.952 342.146 186.869 343.984 184.886C346.335 184.403 348.74 184.107 351.199 184C345.796 183.705 340.384 183.606 334.965 183.705C334.965 182.523 334.965 181.341 334.965 180.159C340.376 180.159 345.787 180.159 351.199 180.159C351.199 178.583 351.199 177.008 351.199 175.432C353.742 175.581 356.146 175.286 358.414 174.545C357.361 173.856 356.309 173.167 355.257 172.477C354.637 171.986 354.787 171.592 355.708 171.295C356.91 170.902 358.113 170.508 359.315 170.114C361.104 170.989 362.757 171.974 364.276 173.068C365.737 172.039 367.09 170.956 368.334 169.818C364.727 169.424 361.119 169.424 357.512 169.818C355.573 170.652 353.468 171.145 351.199 171.295C350.929 170.052 351.229 168.87 352.1 167.75C354.224 167.146 355.728 166.161 356.61 164.795Z" fill="#FEFFFE"/>
<path opacity="0.823" fill-rule="evenodd" clip-rule="evenodd" d="M310.614 171.886C309.859 172.088 309.557 172.482 309.713 173.068C308.957 173.27 308.656 173.664 308.811 174.25C305.996 177.938 303.141 181.681 300.243 185.477C299.801 186.241 299.65 187.029 299.792 187.841C309.713 187.841 319.633 187.841 329.554 187.841C329.554 189.22 329.554 190.599 329.554 191.977C318.727 192.076 307.904 191.977 297.086 191.682C293.272 190.921 291.92 189.247 293.028 186.659C297.052 180.799 300.809 174.89 304.301 168.932C300.092 168.932 295.884 168.932 291.675 168.932C291.675 167.75 291.675 166.568 291.675 165.386C299.215 165.191 306.73 165.388 314.222 165.977C312.508 167.826 311.306 169.796 310.614 171.886Z" fill="#FEFFFE"/>
<path opacity="0.858" fill-rule="evenodd" clip-rule="evenodd" d="M196.979 196.705C194.273 196.705 191.568 196.705 188.862 196.705C191.51 192.098 194.516 187.568 197.881 183.114C192.805 182.525 187.695 182.328 182.549 182.523C182.549 181.932 182.549 181.341 182.549 180.75C183.84 179.993 184.441 179.009 184.353 177.795C190.073 177.894 195.784 177.795 201.488 177.5C204.16 173.9 206.715 170.257 209.154 166.568C211.911 166.007 214.767 165.81 217.722 165.977C211.306 176.355 204.392 186.597 196.979 196.705Z" fill="#FEFFFE"/>
<path opacity="0.844" fill-rule="evenodd" clip-rule="evenodd" d="M224.035 165.977C236.962 165.676 242.223 169.615 239.818 177.795C238.09 179.914 235.535 181.391 232.152 182.227C224.618 182.719 217.103 182.62 209.605 181.932C210.249 180.566 211.15 179.286 212.311 178.091C218.323 177.894 224.336 177.697 230.348 177.5C234.814 175.444 234.814 173.277 230.348 171C227.357 170.706 224.351 170.607 221.329 170.705C221.726 169.003 222.628 167.427 224.035 165.977Z" fill="#FEFFFE"/>
<path opacity="0.839" fill-rule="evenodd" clip-rule="evenodd" d="M238.465 196.705C235.459 196.705 232.452 196.705 229.446 196.705C236.18 186.627 243.094 176.581 250.189 166.568C253.332 165.738 256.338 165.836 259.208 166.864C251.92 176.709 245.005 186.656 238.465 196.705Z" fill="#FEFFFE"/>
<path opacity="0.853" fill-rule="evenodd" clip-rule="evenodd" d="M264.619 165.977C272.116 165.34 277.677 167.112 281.304 171.295C283.232 176.349 280.677 179.993 273.638 182.227C266.128 182.523 258.613 182.621 251.091 182.523C251.322 181.083 251.923 179.704 252.895 178.386C259.187 177.895 265.5 177.6 271.834 177.5C275.074 175.745 275.374 173.775 272.736 171.591C269.556 170.801 266.249 170.506 262.815 170.705C262.891 169.034 263.492 167.458 264.619 165.977Z" fill="#FEFFFE"/>
<path opacity="0.797" fill-rule="evenodd" clip-rule="evenodd" d="M307.909 176.614C310.035 176.517 312.139 176.616 314.222 176.909C317.837 180.457 322.948 182.131 329.554 181.932C329.554 183.311 329.554 184.689 329.554 186.068C318.915 186.138 311.7 182.986 307.909 176.614Z" fill="#FEFFFE"/>
<path opacity="0.806" fill-rule="evenodd" clip-rule="evenodd" d="M358.414 184.295C360.539 184.199 362.643 184.297 364.727 184.591C366.348 186.799 369.054 187.981 372.843 188.136C373.676 189.342 373.976 190.623 373.745 191.977C365.702 191.816 360.592 189.255 358.414 184.295Z" fill="#FEFFFE"/>
</g>
<path d="M389.13 147.71H5.96999C3.32455 147.71 1.17999 149.855 1.17999 152.5V207.24C1.17999 209.885 3.32455 212.03 5.96999 212.03H389.13C391.775 212.03 393.92 209.885 393.92 207.24V152.5C393.92 149.855 391.775 147.71 389.13 147.71Z" stroke="url(#paint5_linear_103_17)" stroke-width="1.37"/>
</g>
<defs>
<linearGradient id="paint0_linear_103_17" x1="0.499989" y1="44.29" x2="195.15" y2="-94.79" gradientUnits="userSpaceOnUse">
<stop stop-color="#3245FF"/>
<stop offset="1" stop-color="#BC52EE"/>
</linearGradient>
<linearGradient id="paint1_linear_103_17" x1="0.499989" y1="44.29" x2="195.15" y2="-94.79" gradientUnits="userSpaceOnUse">
<stop stop-color="#3245FF"/>
<stop offset="1" stop-color="#BC52EE"/>
</linearGradient>
<linearGradient id="paint2_linear_103_17" x1="0.499994" y1="123.03" x2="243.81" y2="-50.8301" gradientUnits="userSpaceOnUse">
<stop stop-color="#3245FF"/>
<stop offset="1" stop-color="#BC52EE"/>
</linearGradient>
<linearGradient id="paint3_linear_103_17" x1="0.499994" y1="123.03" x2="243.81" y2="-50.8301" gradientUnits="userSpaceOnUse">
<stop stop-color="#3245FF"/>
<stop offset="1" stop-color="#BC52EE"/>
</linearGradient>
<linearGradient id="paint4_linear_103_17" x1="0.499994" y1="212.71" x2="292.47" y2="4.09" gradientUnits="userSpaceOnUse">
<stop stop-color="#3245FF"/>
<stop offset="1" stop-color="#BC52EE"/>
</linearGradient>
<linearGradient id="paint5_linear_103_17" x1="0.499994" y1="212.71" x2="292.47" y2="4.09" gradientUnits="userSpaceOnUse">
<stop stop-color="#3245FF"/>
<stop offset="1" stop-color="#BC52EE"/>
</linearGradient>
<clipPath id="clip0_103_17">
<rect width="395" height="213" fill="white" transform="translate(0.5 0.5)"/>
</clipPath>
<clipPath id="clip1_103_17">
<rect width="90" height="17" fill="white" transform="translate(151 13)"/>
</clipPath>
<clipPath id="clip2_103_17">
<rect width="145" height="22" fill="white" transform="translate(164 82)"/>
</clipPath>
<clipPath id="clip3_103_17">
<rect width="193" height="39" fill="white" transform="translate(183 158)"/>
</clipPath>
</defs>
</svg>
