<svg width="193" height="33" viewBox="0 0 193 33" fill="none" xmlns="http://www.w3.org/2000/svg">
<g clip-path="url(#clip0_103_30)">
<path d="M188.5 1H4.5C2.567 1 1 2.567 1 4.5V28.5C1 30.433 2.567 32 4.5 32H188.5C190.433 32 192 30.433 192 28.5V4.5C192 2.567 190.433 1 188.5 1Z" fill="#1A1B1E"/>
<path d="M188.5 1H4.5C2.567 1 1 2.567 1 4.5V28.5C1 30.433 2.567 32 4.5 32H188.5C190.433 32 192 30.433 192 28.5V4.5C192 2.567 190.433 1 188.5 1Z" fill="url(#paint0_linear_103_30)" fill-opacity="0.5"/>
<path d="M26.9 20.5V12.22H29.24C31.15 12.22 32.09 12.94 32.09 14.4C32.09 15.09 31.89 15.7 31.08 16.05V16.36C32.06 16.65 32.34 17.38 32.34 18.22C32.34 19.74 31.39 20.5 29.48 20.5H26.9ZM27.91 19.59H29.54C30.78 19.59 31.28 19.17 31.28 18.16C31.28 17.14 30.77 16.72 29.54 16.72H27.91V19.59ZM27.91 15.83H29.31C30.54 15.83 31.04 15.45 31.04 14.48C31.04 13.52 30.55 13.13 29.3 13.13H27.91V15.83ZM36.71 20.69C34.91 20.69 34.01 19.61 34.01 17.43V12.22H35.02V17.28C35.02 18.98 35.52 19.72 36.72 19.72C37.9 19.72 38.41 18.99 38.41 17.28V12.22H39.41V17.42C39.41 19.62 38.53 20.69 36.71 20.69ZM41.21 20.5V19.59H43.41V13.13H41.21V12.22H46.61V13.13H44.41V19.59H46.61V20.5H41.21ZM48.95 20.5V12.22H49.95V19.59H53.87V20.5H48.95ZM57.8 20.5V13.13H55.36V12.22H61.24V13.13H58.8V20.5H57.8ZM70.03 20.5L69.19 12.22H70.17L70.83 19.58L71.14 19.6L71.88 14.74H73.52L74.25 19.6L74.56 19.58L75.22 12.22H76.2L75.36 20.5H73.56L72.86 15.65H72.52L71.82 20.5H70.02H70.03ZM77.19 20.5V19.59H79.39V13.13H77.19V12.22H82.59V13.13H80.39V19.59H82.59V20.5H77.19ZM86.58 20.5V13.13H84.14V12.22H90.02V13.13H87.6V20.5H86.59H86.58ZM95.97 20.5V16.7H92.58V20.5H91.58V12.22H92.58V15.8H95.97V12.22H96.97V20.5H95.97Z" fill="white"/>
<path d="M188.5 1H4.5C2.567 1 1 2.567 1 4.5V28.5C1 30.433 2.567 32 4.5 32H188.5C190.433 32 192 30.433 192 28.5V4.5C192 2.567 190.433 1 188.5 1Z" stroke="url(#paint1_linear_103_30)"/>
<g clip-path="url(#clip1_103_30)">
<path opacity="0.785" fill-rule="evenodd" clip-rule="evenodd" d="M124.381 7.89392C125.119 7.89392 125.857 7.89392 126.596 7.89392C128.225 9.66688 127.364 10.374 124.012 10.0151C122.981 9.23189 123.104 8.52482 124.381 7.89392Z" fill="#FEFFFE"/>
<path opacity="0.792" fill-rule="evenodd" clip-rule="evenodd" d="M140.993 7.89392C141.731 7.89392 142.47 7.89392 143.208 7.89392C144.184 8.32156 144.492 8.88721 144.131 9.59089C143.051 10.3503 141.82 10.421 140.439 9.80301C140.095 9.09811 140.28 8.46175 140.993 7.89392Z" fill="#FEFFFE"/>
<path opacity="0.799" fill-rule="evenodd" clip-rule="evenodd" d="M156.498 13.8334C156.807 13.7609 156.93 13.6195 156.867 13.4091C157.176 13.3366 157.299 13.1952 157.236 12.9849C158.679 13.0352 160.033 12.8584 161.297 12.4546C161.912 11.8182 162.527 11.1818 163.143 10.5455C163.871 10.4404 164.609 10.405 165.357 10.4394C164.533 13.6207 161.58 14.752 156.498 13.8334Z" fill="#FEFFFE"/>
<path opacity="0.821" fill-rule="evenodd" clip-rule="evenodd" d="M167.203 10.4394C167.83 10.4054 168.446 10.4407 169.049 10.5454C169.687 10.9639 170.364 11.3528 171.079 11.7121C171.262 11.3655 171.323 11.0119 171.264 10.6515C172.002 10.6515 172.741 10.6515 173.479 10.6515C173.479 12.2778 173.479 13.904 173.479 15.5303C172.741 15.5303 172.002 15.5303 171.264 15.5303C171.361 15.2168 171.238 14.934 170.895 14.6818C169.811 15.1723 168.58 15.4552 167.203 15.5303C167.143 15.1002 167.205 14.676 167.388 14.2576C168.696 14.0055 169.865 13.6166 170.895 13.0909C169.058 12.6013 167.705 11.8235 166.834 10.7576C167.039 10.6764 167.162 10.5703 167.203 10.4394Z" fill="#FEFFFE"/>
<path opacity="0.81" fill-rule="evenodd" clip-rule="evenodd" d="M176.063 10.4394C178.466 10.6736 180.866 10.8857 183.262 11.0758C183.048 13.6742 180.648 15.1237 176.063 15.4242C176.232 15.5121 176.355 15.6181 176.432 15.7424C178.634 15.9537 180.848 16.0244 183.077 15.9545C183.077 16.3081 183.077 16.6616 183.077 17.0151C180.862 17.0151 178.647 17.0151 176.432 17.0151C176.432 18.0758 176.432 19.1364 176.432 20.197C175.571 20.197 174.709 20.197 173.848 20.197C173.909 19.3456 173.848 18.4971 173.664 17.6515C172.425 19.2626 170.272 20.1111 167.203 20.197C167.109 19.7107 167.232 19.2511 167.572 18.8182C169.035 18.752 170.143 18.3631 170.895 17.6515C171.857 17.4779 172.842 17.3719 173.848 17.3333C171.637 17.2274 169.422 17.192 167.203 17.2273C167.203 16.803 167.203 16.3788 167.203 15.9545C169.418 15.9545 171.633 15.9545 173.848 15.9545C173.848 15.3889 173.848 14.8232 173.848 14.2576C174.889 14.3111 175.873 14.2051 176.801 13.9394C176.371 13.6919 175.94 13.4444 175.509 13.197C175.255 13.0205 175.317 12.8791 175.694 12.7727C176.186 12.6313 176.678 12.4899 177.171 12.3485C177.903 12.6628 178.579 13.0164 179.201 13.4091C179.799 13.0397 180.353 12.6508 180.862 12.2424C179.386 12.101 177.909 12.101 176.432 12.2424C175.639 12.5418 174.777 12.7186 173.848 12.7727C173.738 12.3264 173.861 11.9022 174.217 11.5C175.087 11.2833 175.702 10.9297 176.063 10.4394Z" fill="#FEFFFE"/>
<path opacity="0.823" fill-rule="evenodd" clip-rule="evenodd" d="M157.236 12.9848C156.927 13.0573 156.803 13.1987 156.867 13.4091C156.557 13.4816 156.434 13.623 156.498 13.8333C155.346 15.1573 154.177 16.5007 152.991 17.8636C152.81 18.1379 152.748 18.4208 152.806 18.7121C156.867 18.7121 160.928 18.7121 164.988 18.7121C164.988 19.2071 164.988 19.702 164.988 20.197C160.557 20.2323 156.127 20.1969 151.699 20.0909C150.137 19.8179 149.584 19.2169 150.037 18.2879C151.685 16.1842 153.222 14.063 154.652 11.9242C152.929 11.9242 151.207 11.9242 149.484 11.9242C149.484 11.5 149.484 11.0757 149.484 10.6515C152.57 10.5813 155.646 10.652 158.713 10.8636C158.011 11.5274 157.519 12.2345 157.236 12.9848Z" fill="#FEFFFE"/>
<path opacity="0.858" fill-rule="evenodd" clip-rule="evenodd" d="M110.722 21.8939C109.614 21.8939 108.507 21.8939 107.4 21.8939C108.483 20.2403 109.714 18.6141 111.091 17.0151C109.014 16.804 106.922 16.7333 104.815 16.803C104.815 16.5909 104.815 16.3788 104.815 16.1666C105.344 15.895 105.59 15.5415 105.554 15.106C107.895 15.1413 110.233 15.1059 112.568 15C113.661 13.7078 114.707 12.3997 115.706 11.0757C116.834 10.8741 118.003 10.8034 119.213 10.8636C116.587 14.5889 113.756 18.2657 110.722 21.8939Z" fill="#FEFFFE"/>
<path opacity="0.844" fill-rule="evenodd" clip-rule="evenodd" d="M121.797 10.8636C127.088 10.7553 129.242 12.1695 128.257 15.1061C127.55 15.8665 126.504 16.3968 125.119 16.697C122.035 16.8734 118.959 16.838 115.89 16.5909C116.154 16.1007 116.523 15.6411 116.998 15.2121C119.459 15.1414 121.92 15.0707 124.381 15C126.209 14.2618 126.209 13.484 124.381 12.6667C123.156 12.561 121.926 12.5256 120.689 12.5606C120.852 11.9497 121.221 11.3841 121.797 10.8636Z" fill="#FEFFFE"/>
<path opacity="0.839" fill-rule="evenodd" clip-rule="evenodd" d="M127.703 21.894C126.473 21.894 125.242 21.894 124.012 21.894C126.768 18.2763 129.598 14.6703 132.502 11.0758C133.789 10.7777 135.019 10.813 136.194 11.1818C133.211 14.716 130.38 18.2867 127.703 21.894Z" fill="#FEFFFE"/>
<path opacity="0.853" fill-rule="evenodd" clip-rule="evenodd" d="M138.409 10.8637C141.478 10.6348 143.754 11.2711 145.238 12.7727C146.028 14.5869 144.982 15.895 142.1 16.697C139.027 16.803 135.95 16.8383 132.871 16.803C132.966 16.2861 133.212 15.7911 133.61 15.3182C136.185 15.1419 138.769 15.0358 141.362 15C142.688 14.3699 142.811 13.6628 141.731 12.8788C140.43 12.5952 139.076 12.4892 137.671 12.5606C137.701 11.9609 137.948 11.3952 138.409 10.8637Z" fill="#FEFFFE"/>
<path opacity="0.797" fill-rule="evenodd" clip-rule="evenodd" d="M156.129 14.6818C156.999 14.6472 157.86 14.6825 158.713 14.7879C160.192 16.0615 162.284 16.6625 164.988 16.5909C164.988 17.0858 164.988 17.5808 164.988 18.0757C160.634 18.1006 157.68 16.9693 156.129 14.6818Z" fill="#FEFFFE"/>
<path opacity="0.806" fill-rule="evenodd" clip-rule="evenodd" d="M176.801 17.4394C177.671 17.4047 178.533 17.4401 179.386 17.5454C180.049 18.3381 181.157 18.7623 182.708 18.8182C183.049 19.2511 183.172 19.7107 183.077 20.1969C179.785 20.1391 177.693 19.2199 176.801 17.4394Z" fill="#FEFFFE"/>
</g>
</g>
<defs>
<linearGradient id="paint0_linear_103_30" x1="0.499999" y1="32.5" x2="142.74" y2="-69.14" gradientUnits="userSpaceOnUse">
<stop stop-color="#3245FF"/>
<stop offset="1" stop-color="#BC52EE"/>
</linearGradient>
<linearGradient id="paint1_linear_103_30" x1="0.499999" y1="32.5" x2="142.74" y2="-69.14" gradientUnits="userSpaceOnUse">
<stop stop-color="#3245FF"/>
<stop offset="1" stop-color="#BC52EE"/>
</linearGradient>
<clipPath id="clip0_103_30">
<rect width="192" height="32" fill="white" transform="translate(0.5 0.5)"/>
</clipPath>
<clipPath id="clip1_103_30">
<rect width="79" height="14" fill="white" transform="translate(105 8)"/>
</clipPath>
</defs>
</svg>
