<svg width="121" height="21" viewBox="0 0 121 21" fill="none" xmlns="http://www.w3.org/2000/svg">
<g clip-path="url(#clip0_103_7)">
<path d="M116.5 1H4.5C2.567 1 1 2.567 1 4.5V16.5C1 18.433 2.567 20 4.5 20H116.5C118.433 20 120 18.433 120 16.5V4.5C120 2.567 118.433 1 116.5 1Z" fill="#1A1B1E"/>
<path d="M116.5 1H4.5C2.567 1 1 2.567 1 4.5V16.5C1 18.433 2.567 20 4.5 20H116.5C118.433 20 120 18.433 120 16.5V4.5C120 2.567 118.433 1 116.5 1Z" fill="url(#paint0_linear_103_7)" fill-opacity="0.5"/>
<path d="M9.57001 13.5V7.28998H11.43C12.87 7.28998 13.57 7.82998 13.57 8.91998C13.57 9.43998 13.41 9.89998 12.81 10.14V10.39C13.55 10.6 13.77 11.15 13.77 11.79C13.77 12.93 13.05 13.5 11.62 13.5H9.57001ZM10.48 12.7H11.62C12.47 12.7 12.82 12.41 12.82 11.7C12.82 11 12.46 10.72 11.62 10.72H10.48V12.7ZM10.48 9.94998H11.45C12.29 9.94998 12.65 9.67998 12.65 9.01998C12.65 8.34998 12.3 8.07998 11.45 8.07998H10.48V9.94998ZM17.17 13.65C15.77 13.65 15.11 12.85 15.11 11.2V7.29998H16.01V11.13C16.01 12.29 16.36 12.77 17.17 12.77C17.97 12.77 18.32 12.29 18.32 11.13V7.28998H19.22V11.21C19.22 12.85 18.56 13.64 17.17 13.64V13.65ZM20.7 13.5V12.67H22.28V8.11998H20.7V7.28998H24.79V8.11998H23.2V12.67H24.79V13.5H20.7ZM26.66 13.5V7.28998H27.56V12.67H30.42V13.5H26.66ZM33.44 13.5V8.11998H31.67V7.28998H36.12V8.11998H34.36V13.5H33.44ZM43.01 13.5L42.42 7.28998H43.3L43.7 12.52L43.93 12.55L44.5 8.99998H45.6L46.17 12.55L46.42 12.52L46.8 7.28998H47.68L47.09 13.5H45.66L45.18 10.13H44.91L44.43 13.5H43H43.01ZM48.58 13.5V12.67H50.17V8.11998H48.58V7.28998H52.67V8.11998H51.09V12.67H52.67V13.5H48.58ZM55.74 13.5V8.11998H53.98V7.28998H58.43V8.11998H56.66V13.5H55.74ZM62.94 13.5V10.73H60.62V13.5H59.71V7.28998H60.61V9.89998H62.94V7.28998H63.84V13.5H62.94Z" fill="white"/>
<g clip-path="url(#clip1_103_7)">
<path opacity="0.785" fill-rule="evenodd" clip-rule="evenodd" d="M80.7757 4.92426C81.2243 4.92426 81.6729 4.92426 82.1215 4.92426C83.1116 6.19065 82.5882 6.69571 80.5514 6.43941C79.9252 5.87995 80 5.3749 80.7757 4.92426Z" fill="#FEFFFE"/>
<path opacity="0.792" fill-rule="evenodd" clip-rule="evenodd" d="M90.8692 4.92426C91.3178 4.92426 91.7664 4.92426 92.2149 4.92426C92.808 5.22971 92.9948 5.63375 92.7757 6.13638C92.1194 6.6788 91.3717 6.7293 90.5327 6.28789C90.3237 5.78439 90.4358 5.32985 90.8692 4.92426Z" fill="#FEFFFE"/>
<path opacity="0.799" fill-rule="evenodd" clip-rule="evenodd" d="M100.29 9.16666C100.478 9.11489 100.553 9.01388 100.514 8.86363C100.702 8.81186 100.777 8.71085 100.738 8.5606C101.615 8.59654 102.438 8.47028 103.206 8.18182C103.58 7.72727 103.953 7.27272 104.327 6.81818C104.77 6.7431 105.218 6.71786 105.673 6.74242C105.172 9.01475 103.378 9.82283 100.29 9.16666Z" fill="#FEFFFE"/>
<path opacity="0.821" fill-rule="evenodd" clip-rule="evenodd" d="M106.794 6.74244C107.175 6.71817 107.549 6.74343 107.916 6.8182C108.303 7.11714 108.715 7.39491 109.15 7.65153C109.26 7.40394 109.298 7.15141 109.262 6.89396C109.71 6.89396 110.159 6.89396 110.607 6.89396C110.607 8.05558 110.607 9.21718 110.607 10.3788C110.159 10.3788 109.71 10.3788 109.262 10.3788C109.32 10.1549 109.246 9.95287 109.037 9.77274C108.379 10.1231 107.631 10.3252 106.794 10.3788C106.758 10.0716 106.796 9.76861 106.907 9.46971C107.701 9.28968 108.412 9.0119 109.037 8.63638C107.922 8.2867 107.099 7.73114 106.57 6.96971C106.695 6.91175 106.77 6.83599 106.794 6.74244Z" fill="#FEFFFE"/>
<path opacity="0.81" fill-rule="evenodd" clip-rule="evenodd" d="M112.178 6.74243C113.638 6.9097 115.096 7.06122 116.551 7.19698C116.422 9.05304 114.964 10.0884 112.178 10.303C112.28 10.3658 112.355 10.4415 112.402 10.5303C113.739 10.6812 115.085 10.7317 116.439 10.6818C116.439 10.9344 116.439 11.1869 116.439 11.4394C115.093 11.4394 113.748 11.4394 112.402 11.4394C112.402 12.197 112.402 12.9546 112.402 13.7121C111.879 13.7121 111.355 13.7121 110.832 13.7121C110.869 13.104 110.832 12.4979 110.72 11.8939C109.967 13.0447 108.659 13.6508 106.794 13.7121C106.737 13.3648 106.812 13.0365 107.019 12.7273C107.907 12.68 108.58 12.4022 109.037 11.8939C109.622 11.7699 110.22 11.6942 110.832 11.6667C109.488 11.591 108.142 11.5657 106.794 11.5909C106.794 11.2879 106.794 10.9849 106.794 10.6818C108.14 10.6818 109.486 10.6818 110.832 10.6818C110.832 10.2778 110.832 9.87375 110.832 9.4697C111.464 9.50796 112.062 9.4322 112.626 9.24243C112.364 9.06566 112.103 8.8889 111.841 8.71213C111.687 8.58611 111.724 8.4851 111.953 8.4091C112.252 8.30808 112.551 8.20708 112.85 8.10607C113.295 8.33061 113.706 8.58314 114.084 8.86364C114.447 8.59978 114.784 8.32201 115.093 8.03031C114.196 7.9293 113.299 7.9293 112.402 8.03031C111.92 8.24416 111.396 8.37042 110.832 8.4091C110.765 8.09031 110.839 7.78728 111.056 7.50001C111.584 7.34519 111.958 7.09267 112.178 6.74243Z" fill="#FEFFFE"/>
<path opacity="0.823" fill-rule="evenodd" clip-rule="evenodd" d="M100.738 8.56061C100.55 8.61238 100.475 8.7134 100.514 8.86364C100.326 8.91541 100.251 9.01643 100.29 9.16667C99.5897 10.1124 98.8796 11.0719 98.1589 12.0455C98.049 12.2414 98.0115 12.4434 98.0467 12.6515C100.514 12.6515 102.981 12.6515 105.449 12.6515C105.449 13.005 105.449 13.3586 105.449 13.7121C102.756 13.7374 100.064 13.7121 97.3738 13.6364C96.4253 13.4414 96.0888 13.0121 96.3645 12.3485C97.3653 10.8459 98.2997 9.3307 99.1682 7.80303C98.1214 7.80303 97.0748 7.80303 96.028 7.80303C96.028 7.5 96.028 7.19697 96.028 6.89394C97.9032 6.84376 99.7723 6.89426 101.636 7.04546C101.209 7.51959 100.91 8.02465 100.738 8.56061Z" fill="#FEFFFE"/>
<path opacity="0.858" fill-rule="evenodd" clip-rule="evenodd" d="M72.4766 14.9243C71.8037 14.9243 71.1308 14.9243 70.4579 14.9243C71.1164 13.7431 71.864 12.5815 72.7009 11.4394C71.4386 11.2886 70.1676 11.2381 68.8878 11.2879C68.8878 11.1364 68.8878 10.9849 68.8878 10.8334C69.2089 10.6394 69.3584 10.3868 69.3364 10.0758C70.759 10.101 72.1795 10.0757 73.5981 10C74.2625 9.07705 74.898 8.14272 75.5047 7.19699C76.1903 7.05298 76.9006 7.00246 77.6355 7.04548C76.0399 9.70643 74.3203 12.3327 72.4766 14.9243Z" fill="#FEFFFE"/>
<path opacity="0.844" fill-rule="evenodd" clip-rule="evenodd" d="M79.2056 7.04545C82.4206 6.96808 83.729 7.97819 83.1308 10.0758C82.7011 10.6189 82.0656 10.9977 81.2243 11.2121C79.3507 11.3381 77.4815 11.3129 75.6168 11.1364C75.7769 10.7862 76.0012 10.4579 76.2897 10.1515C77.7851 10.101 79.2804 10.0505 80.7757 9.99999C81.8864 9.47271 81.8864 8.91716 80.7757 8.33333C80.0317 8.25783 79.2841 8.23257 78.5327 8.25757C78.6314 7.82124 78.8557 7.41719 79.2056 7.04545Z" fill="#FEFFFE"/>
<path opacity="0.839" fill-rule="evenodd" clip-rule="evenodd" d="M82.7944 14.9242C82.0467 14.9242 81.299 14.9242 80.5514 14.9242C82.226 12.3402 83.9457 9.76446 85.7103 7.19696C86.4918 6.98404 87.2395 7.00928 87.9533 7.27272C86.1407 9.79712 84.421 12.3476 82.7944 14.9242Z" fill="#FEFFFE"/>
<path opacity="0.853" fill-rule="evenodd" clip-rule="evenodd" d="M89.2991 7.04544C91.1636 6.88194 92.5467 7.33649 93.4486 8.40908C93.9281 9.70491 93.2927 10.6393 91.542 11.2121C89.6744 11.2878 87.8052 11.3131 85.9346 11.2879C85.9921 10.9186 86.1416 10.565 86.3832 10.2273C87.948 10.1013 89.5181 10.0256 91.0934 9.99999C91.8991 9.54988 91.9738 9.04483 91.3177 8.48483C90.5269 8.28229 89.7045 8.20653 88.8505 8.25756C88.8693 7.82917 89.0188 7.42514 89.2991 7.04544Z" fill="#FEFFFE"/>
<path opacity="0.797" fill-rule="evenodd" clip-rule="evenodd" d="M100.065 9.77273C100.594 9.74799 101.117 9.77325 101.636 9.84849C102.535 10.7582 103.806 11.1875 105.449 11.1364C105.449 11.4899 105.449 11.8434 105.449 12.197C102.803 12.2148 101.008 11.4067 100.065 9.77273Z" fill="#FEFFFE"/>
<path opacity="0.806" fill-rule="evenodd" clip-rule="evenodd" d="M112.626 11.7424C113.155 11.7177 113.678 11.7429 114.196 11.8182C114.6 12.3843 115.272 12.6874 116.215 12.7272C116.422 13.0365 116.497 13.3647 116.439 13.7121C114.439 13.6707 113.168 13.0142 112.626 11.7424Z" fill="#FEFFFE"/>
</g>
<path d="M116.5 1H4.5C2.567 1 1 2.567 1 4.5V16.5C1 18.433 2.567 20 4.5 20H116.5C118.433 20 120 18.433 120 16.5V4.5C120 2.567 118.433 1 116.5 1Z" stroke="url(#paint1_linear_103_7)"/>
</g>
<defs>
<linearGradient id="paint0_linear_103_7" x1="0.499999" y1="20.5" x2="89.4" y2="-43.02" gradientUnits="userSpaceOnUse">
<stop stop-color="#3245FF"/>
<stop offset="1" stop-color="#BC52EE"/>
</linearGradient>
<linearGradient id="paint1_linear_103_7" x1="0.499999" y1="20.5" x2="89.4" y2="-43.02" gradientUnits="userSpaceOnUse">
<stop stop-color="#3245FF"/>
<stop offset="1" stop-color="#BC52EE"/>
</linearGradient>
<clipPath id="clip0_103_7">
<rect width="120" height="20" fill="white" transform="translate(0.5 0.5)"/>
</clipPath>
<clipPath id="clip1_103_7">
<rect width="48" height="10" fill="white" transform="translate(69 5)"/>
</clipPath>
</defs>
</svg>
