<svg width="260" height="156" viewBox="0 0 260 156" fill="none" xmlns="http://www.w3.org/2000/svg">
<g clip-path="url(#clip0_107_236)">
<mask id="mask0_107_236" style="mask-type:luminance" maskUnits="userSpaceOnUse" x="0" y="0" width="260" height="156">
<path d="M256 0H4C1.79086 0 0 1.79086 0 4V152C0 154.209 1.79086 156 4 156H256C258.209 156 260 154.209 260 152V4C260 1.79086 258.209 0 256 0Z" fill="white"/>
</mask>
<g mask="url(#mask0_107_236)">
<path d="M256 0H4C1.79086 0 0 1.79086 0 4V152C0 154.209 1.79086 156 4 156H256C258.209 156 260 154.209 260 152V4C260 1.79086 258.209 0 256 0Z" fill="#545864"/>
<path d="M0 0H32V156H0V0Z" fill="#17191E" fill-opacity="0.5"/>
<path d="M16 32C22.6274 32 28 26.6274 28 20C28 13.3726 22.6274 8 16 8C9.37258 8 4 13.3726 4 20C4 26.6274 9.37258 32 16 32Z" fill="#858B98"/>
<path d="M16 31.5C22.3513 31.5 27.5 26.3513 27.5 20C27.5 13.6487 22.3513 8.5 16 8.5C9.64873 8.5 4.5 13.6487 4.5 20C4.5 26.3513 9.64873 31.5 16 31.5Z" stroke="#17191E" stroke-opacity="0.18"/>
<mask id="mask1_107_236" style="mask-type:luminance" maskUnits="userSpaceOnUse" x="10" y="42" width="12" height="12">
<path d="M10 42H22V54H10V42Z" fill="white"/>
</mask>
<g mask="url(#mask1_107_236)">
<path d="M16 49.125C16.2984 49.125 16.5845 49.0065 16.7955 48.7955C17.0065 48.5845 17.125 48.2984 17.125 48C17.125 47.7016 17.0065 47.4155 16.7955 47.2045C16.5845 46.9935 16.2984 46.875 16 46.875C15.7016 46.875 15.4155 46.9935 15.2045 47.2045C14.9935 47.4155 14.875 47.7016 14.875 48C14.875 48.2984 14.9935 48.5845 15.2045 48.7955C15.4155 49.0065 15.7016 49.125 16 49.125Z" fill="#858B98"/>
<path d="M16 42C17.5913 42 19.1174 42.6321 20.2426 43.7574C21.3679 44.8826 22 46.4087 22 48C22 49.5913 21.3679 51.1174 20.2426 52.2426C19.1174 53.3679 17.5913 54 16 54C14.4087 54 12.8826 53.3679 11.7574 52.2426C10.6321 51.1174 10 49.5913 10 48C10 46.4087 10.6321 44.8826 11.7574 43.7574C12.8826 42.6321 14.4087 42 16 42ZM11.125 48C11.125 49.2929 11.6386 50.5329 12.5529 51.4471C13.4671 52.3614 14.7071 52.875 16 52.875C17.2929 52.875 18.5329 52.3614 19.4471 51.4471C20.3614 50.5329 20.875 49.2929 20.875 48C20.875 46.7071 20.3614 45.4671 19.4471 44.5529C18.5329 43.6386 17.2929 43.125 16 43.125C14.7071 43.125 13.4671 43.6386 12.5529 44.5529C11.6386 45.4671 11.125 46.7071 11.125 48Z" fill="#858B98"/>
</g>
<path d="M20 58H12C10.8954 58 10 58.8954 10 60C10 61.1046 10.8954 62 12 62H20C21.1046 62 22 61.1046 22 60C22 58.8954 21.1046 58 20 58Z" fill="#858B98"/>
<path d="M14.088 75.865C14.3529 76.3939 14.7598 76.8388 15.2631 77.1496C15.7665 77.4604 16.3464 77.625 16.938 77.625H17.971C18.1037 77.2495 18.3649 76.9331 18.7083 76.7316C19.0518 76.53 19.4554 76.4564 19.8479 76.5238C20.2404 76.5911 20.5964 76.795 20.8531 77.0994C21.1097 77.4039 21.2505 77.7893 21.2505 78.1875C21.2505 78.5857 21.1097 78.9711 20.8531 79.2755C20.5964 79.58 20.2404 79.7839 19.8479 79.8512C19.4554 79.9185 19.0518 79.8449 18.7083 79.6434C18.3649 79.4419 18.1037 79.1254 17.971 78.75H16.937C16.337 78.7505 15.7434 78.6255 15.1946 78.383C14.6457 78.1406 14.1537 77.7859 13.75 77.342V79.971C14.1254 80.1037 14.4419 80.3648 14.6434 80.7083C14.8449 81.0517 14.9185 81.4554 14.8512 81.8478C14.7839 82.2403 14.58 82.5964 14.2755 82.853C13.9711 83.1097 13.5857 83.2505 13.1875 83.2505C12.7893 83.2505 12.4039 83.1097 12.0995 82.853C11.795 82.5964 11.5911 82.2403 11.5238 81.8478C11.4565 81.4554 11.5301 81.0517 11.7316 80.7083C11.9331 80.3648 12.2496 80.1037 12.625 79.971V76.029C12.2651 75.9015 11.9592 75.6557 11.7571 75.3317C11.555 75.0078 11.4688 74.6249 11.5125 74.2456C11.5562 73.8664 11.7273 73.5131 11.9978 73.2437C12.2683 72.9742 12.6222 72.8045 13.0016 72.7622C13.3811 72.7199 13.7636 72.8076 14.0868 73.0109C14.4099 73.2142 14.6546 73.5211 14.7807 73.8815C14.9068 74.2419 14.907 74.6343 14.7812 74.9948C14.6553 75.3553 14.411 75.6614 14.088 75.865ZM13.188 82.125C13.2639 82.1282 13.3396 82.116 13.4106 82.0892C13.4817 82.0623 13.5465 82.0214 13.6013 81.9689C13.6562 81.9163 13.6998 81.8532 13.7296 81.7834C13.7594 81.7135 13.7747 81.6384 13.7747 81.5625C13.7747 81.4865 13.7594 81.4114 13.7296 81.3416C13.6998 81.2717 13.6562 81.2086 13.6013 81.1561C13.5465 81.1035 13.4817 81.0626 13.4106 81.0358C13.3396 81.0089 13.2639 80.9968 13.188 81C13.0429 81.0061 12.9058 81.068 12.8053 81.1728C12.7048 81.2777 12.6487 81.4173 12.6487 81.5625C12.6487 81.7077 12.7048 81.8473 12.8053 81.9521C12.9058 82.0569 13.0429 82.1189 13.188 82.125ZM19.562 78.75C19.6379 78.7532 19.7136 78.741 19.7846 78.7142C19.8557 78.6873 19.9205 78.6464 19.9753 78.5939C20.0302 78.5413 20.0738 78.4782 20.1036 78.4084C20.1334 78.3385 20.1487 78.2634 20.1487 78.1875C20.1487 78.1115 20.1334 78.0364 20.1036 77.9666C20.0738 77.8967 20.0302 77.8336 19.9753 77.7811C19.9205 77.7285 19.8557 77.6876 19.7846 77.6608C19.7136 77.6339 19.6379 77.6218 19.562 77.625C19.4169 77.6311 19.2798 77.693 19.1793 77.7978C19.0788 77.9027 19.0227 78.0423 19.0227 78.1875C19.0227 78.3327 19.0788 78.4723 19.1793 78.5771C19.2798 78.6819 19.4169 78.7439 19.562 78.75ZM13.75 74.437C13.7495 74.2878 13.6898 74.145 13.584 74.0398C13.4783 73.9346 13.3351 73.8757 13.186 73.876C13.0369 73.8762 12.8939 73.9357 12.7885 74.0412C12.6832 74.1468 12.624 74.2898 12.624 74.439C12.624 74.5881 12.6832 74.7312 12.7885 74.8367C12.8939 74.9423 13.0369 75.0017 13.186 75.002C13.3351 75.0022 13.4783 74.9433 13.584 74.8381C13.6898 74.7329 13.7495 74.5901 13.75 74.441V74.437Z" fill="#858B98"/>
<path d="M20 88H12C10.8954 88 10 88.8954 10 90C10 91.1046 10.8954 92 12 92H20C21.1046 92 22 91.1046 22 90C22 88.8954 21.1046 88 20 88Z" fill="#858B98"/>
<mask id="mask2_107_236" style="mask-type:luminance" maskUnits="userSpaceOnUse" x="10" y="102" width="12" height="12">
<path d="M10 102H22V114H10V102Z" fill="white"/>
</mask>
<g mask="url(#mask2_107_236)">
<path d="M11.313 102.75H20.687C21.412 102.75 22 103.338 22 104.062V110.438C21.9995 110.786 21.8609 111.12 21.6148 111.365C21.3686 111.611 21.035 111.75 20.687 111.75H16.046L14.116 113.68C13.9627 113.832 13.7681 113.935 13.5564 113.977C13.3448 114.019 13.1255 113.997 12.926 113.915C12.7261 113.833 12.5551 113.693 12.4347 113.514C12.3144 113.334 12.2501 113.123 12.25 112.907V111.75H11.312C10.9641 111.75 10.6306 111.611 10.3846 111.365C10.1386 111.119 10.0003 110.786 10 110.438V104.062C10 103.338 10.588 102.75 11.313 102.75ZM11.125 104.062V110.438C11.125 110.541 11.209 110.625 11.313 110.625H12.813C12.887 110.625 12.9602 110.639 13.0286 110.667C13.097 110.696 13.1591 110.737 13.2113 110.789C13.2636 110.842 13.305 110.904 13.333 110.972C13.3611 111.041 13.3754 111.114 13.375 111.188V112.83L15.415 110.79C15.4672 110.738 15.5292 110.696 15.5975 110.668C15.6658 110.639 15.7391 110.625 15.813 110.625H20.687C20.7367 110.625 20.7844 110.605 20.8196 110.57C20.8548 110.535 20.8747 110.488 20.875 110.438V104.062C20.875 104.037 20.8701 104.013 20.8607 103.99C20.8512 103.967 20.8373 103.947 20.8199 103.929C20.8024 103.912 20.7817 103.898 20.7589 103.889C20.7361 103.88 20.7116 103.875 20.687 103.875H11.312C11.2625 103.875 11.2151 103.895 11.1801 103.93C11.145 103.965 11.1253 104.012 11.125 104.062ZM15.085 105.352C15.19 105.458 15.249 105.601 15.249 105.75C15.249 105.899 15.19 106.042 15.085 106.148L13.982 107.25L15.085 108.353C15.16 108.432 15.2102 108.532 15.2295 108.639C15.2488 108.746 15.2364 108.857 15.1937 108.957C15.151 109.058 15.0799 109.143 14.9892 109.204C14.8985 109.264 14.7921 109.297 14.683 109.298C14.5373 109.301 14.3963 109.247 14.29 109.147L12.79 107.648C12.685 107.542 12.626 107.399 12.626 107.25C12.626 107.101 12.685 106.958 12.79 106.852L14.29 105.352C14.3955 105.247 14.5385 105.188 14.6875 105.188C14.8365 105.188 14.9795 105.247 15.085 105.352ZM16.915 105.352C17.0205 105.247 17.1635 105.188 17.3125 105.188C17.4615 105.188 17.6045 105.247 17.71 105.352L19.21 106.852C19.315 106.958 19.374 107.101 19.374 107.25C19.374 107.399 19.315 107.542 19.21 107.648L17.71 109.147C17.6047 109.252 17.4619 109.312 17.3129 109.312C17.1639 109.312 17.0209 109.253 16.9155 109.147C16.8101 109.042 16.7508 108.899 16.7507 108.75C16.7506 108.601 16.8097 108.458 16.915 108.353L18.017 107.25L16.915 106.148C16.81 106.042 16.751 105.899 16.751 105.75C16.751 105.601 16.81 105.458 16.915 105.352Z" fill="#858B98"/>
</g>
<path d="M20 118H12C10.8954 118 10 118.895 10 120C10 121.105 10.8954 122 12 122H20C21.1046 122 22 121.105 22 120C22 118.895 21.1046 118 20 118Z" fill="#858B98"/>
<path d="M250 16H42C40.8954 16 40 16.8954 40 18C40 19.1046 40.8954 20 42 20H250C251.105 20 252 19.1046 252 18C252 16.8954 251.105 16 250 16Z" fill="#858B98"/>
<path d="M250 40H42C40.8954 40 40 40.8954 40 42C40 43.1046 40.8954 44 42 44H250C251.105 44 252 43.1046 252 42C252 40.8954 251.105 40 250 40Z" fill="#858B98"/>
<path d="M250 64H42C40.8954 64 40 64.8954 40 66C40 67.1046 40.8954 68 42 68H250C251.105 68 252 67.1046 252 66C252 64.8954 251.105 64 250 64Z" fill="#858B98"/>
<path d="M250 88H42C40.8954 88 40 88.8954 40 90C40 91.1046 40.8954 92 42 92H250C251.105 92 252 91.1046 252 90C252 88.8954 251.105 88 250 88Z" fill="#858B98"/>
<path d="M250 112H42C40.8954 112 40 112.895 40 114C40 115.105 40.8954 116 42 116H250C251.105 116 252 115.105 252 114C252 112.895 251.105 112 250 112Z" fill="#858B98"/>
<path d="M250 136H42C40.8954 136 40 136.895 40 138C40 139.105 40.8954 140 42 140H250C251.105 140 252 139.105 252 138C252 136.895 251.105 136 250 136Z" fill="#858B98"/>
</g>
<path d="M256 0.5H4C2.067 0.5 0.5 2.067 0.5 4V152C0.5 153.933 2.067 155.5 4 155.5H256C257.933 155.5 259.5 153.933 259.5 152V4C259.5 2.067 257.933 0.5 256 0.5Z" stroke="#343841"/>
<g clip-path="url(#clip1_107_236)">
<path fill-rule="evenodd" clip-rule="evenodd" d="M16.6153 132.503C17.0295 132.503 17.3653 132.167 17.3653 131.752C17.3653 131.336 17.0295 131 16.6153 131C16.201 131 15.8653 131.336 15.8653 131.752C15.8653 132.167 16.201 132.503 16.6153 132.503ZM20.0653 133.054H18.8653L15.6153 140.269H16.8153L20.0653 133.054ZM23.9653 131.752C23.9653 132.167 23.6295 132.503 23.2153 132.503C22.801 132.503 22.4653 132.167 22.4653 131.752C22.4653 131.336 22.801 131 23.2153 131C23.6295 131 23.9653 131.336 23.9653 131.752ZM14.7903 133.956L15.2114 133.054L15.2153 133.054C16.2646 133.054 17.1153 133.907 17.1153 134.958C17.1153 136.01 16.2646 136.862 15.2153 136.862H12.3L12.7514 135.86H15.2153C15.7123 135.86 16.1153 135.456 16.1153 134.958C16.1153 134.46 15.7403 134.09 15.2403 134.006C15.0369 133.972 14.7903 133.956 14.7903 133.956ZM21.8114 133.054L21.3903 133.956C21.3903 133.956 21.6369 133.972 21.8403 134.006C22.3403 134.09 22.7153 134.46 22.7153 134.958C22.7153 135.456 22.3123 135.86 21.8153 135.86H19.3514L18.9 136.862H21.8153C22.8646 136.862 23.7153 136.01 23.7153 134.958C23.7153 133.907 22.8646 133.054 21.8153 133.054L21.8114 133.054ZM12.2653 133.054H13.4653L10.2153 140.269H9.01528L10.55 136.862H8L8.45139 135.86H11.0014L12.2653 133.054Z" fill="#858B98"/>
</g>
</g>
<defs>
<clipPath id="clip0_107_236">
<rect width="260" height="156" fill="white"/>
</clipPath>
<clipPath id="clip1_107_236">
<rect width="16" height="9.2694" fill="white" transform="translate(8 131)"/>
</clipPath>
</defs>
</svg>
